<svg width="15" height="15" viewBox="0 0 15 15" fill="none" xmlns="http://www.w3.org/2000/svg">
<path d="M10.0547 9.70896L14.0305 13.6848M6.52054 11.0343C7.15869 11.0343 7.79059 10.9086 8.38016 10.6644C8.96973 10.4201 9.50543 10.0622 9.95667 9.61096C10.4079 9.15973 10.7658 8.62403 11.0101 8.03446C11.2543 7.44489 11.38 6.81299 11.38 6.17484C11.38 5.53669 11.2543 4.9048 11.0101 4.31523C10.7658 3.72565 10.4079 3.18996 9.95667 2.73872C9.50543 2.28748 8.96973 1.92954 8.38016 1.68533C7.79059 1.44112 7.15869 1.31543 6.52054 1.31543C5.23175 1.31543 3.99574 1.8274 3.08442 2.73872C2.17311 3.65003 1.66113 4.88605 1.66113 6.17484C1.66113 7.46364 2.17311 8.69965 3.08442 9.61096C3.99574 10.5223 5.23175 11.0343 6.52054 11.0343Z" stroke="white" stroke-width="1.76706"/>
</svg>
