<svg width="15" height="16" viewBox="0 0 15 16" fill="none" xmlns="http://www.w3.org/2000/svg">
<g clip-path="url(#clip0_631_132)">
<path d="M7.57535 1.06721L1.17842 5.86491C1.12511 5.90489 1.07847 5.96153 1.03849 6.03483C0.998506 6.10813 0.978516 6.17809 0.978516 6.24473V14.8806C0.978516 15.0139 1.02516 15.1271 1.11845 15.2204C1.21174 15.3137 1.32502 15.3604 1.45829 15.3604H5.77621C5.90948 15.3604 6.02276 15.3137 6.11605 15.2204C6.20934 15.1271 6.25598 15.0139 6.25598 14.8806V10.8825H9.45445V14.8806C9.45445 15.0139 9.50109 15.1271 9.59438 15.2204C9.68767 15.3137 9.80095 15.3604 9.93422 15.3604H14.2521C14.3854 15.3604 14.4987 15.3137 14.592 15.2204C14.6853 15.1271 14.7319 15.0139 14.7319 14.8806V6.24473C14.7319 6.17809 14.7153 6.10813 14.6819 6.03483C14.6486 5.96153 14.6053 5.90489 14.552 5.86491L8.15507 1.06721C7.95517 0.94727 7.76193 0.94727 7.57535 1.06721ZM7.85522 2.04674L13.7724 6.48461V14.4008H10.414V10.4027C10.414 10.2695 10.3673 10.1562 10.2741 10.0629C10.1808 9.96961 10.0675 9.92296 9.93422 9.92296H5.77621C5.64294 9.92296 5.52967 9.96961 5.43638 10.0629C5.34309 10.1562 5.29644 10.2695 5.29644 10.4027V14.4008H1.93806V6.48461L7.85522 2.04674Z" fill="#5D6475"/>
</g>
<defs>
<clipPath id="clip0_631_132">
<rect width="13.7534" height="14.3831" fill="white" transform="matrix(1 0 0 -1 0.978516 15.3604)"/>
</clipPath>
</defs>
</svg>
