<svg width="15" height="19" viewBox="0 0 15 19" fill="none" xmlns="http://www.w3.org/2000/svg">
<g clip-path="url(#clip0_631_630)">
<path d="M0.897461 7.33607C0.897461 5.57947 1.51115 4.08185 2.73852 2.84322C3.96588 1.60459 5.4635 0.990906 7.23136 1.00217C8.99923 1.01343 10.4968 1.62711 11.7242 2.84322C12.9516 4.05933 13.5653 5.55695 13.5653 7.33607C13.5653 8.21437 13.4076 9.11519 13.0923 10.0385C12.777 10.9619 12.2985 11.8965 11.6566 12.8423C11.0148 13.7882 10.4462 14.5821 9.95072 15.2239C9.45527 15.8657 8.83595 16.6145 8.09277 17.4703C7.86757 17.7518 7.59169 17.8926 7.26514 17.8926H7.19758C6.87103 17.8926 6.59516 17.7518 6.36995 17.4703C5.62677 16.6033 5.00746 15.8545 4.51201 15.2239C4.01656 14.5933 3.44791 13.7995 2.80608 12.8423C2.16424 11.8852 1.68568 10.9506 1.37039 10.0385C1.0551 9.12645 0.897461 8.22563 0.897461 7.33607ZM1.96156 7.33607C1.96156 8.14681 2.1192 8.99133 2.43449 9.86963C2.74978 10.7479 3.22834 11.6544 3.87017 12.589C4.51201 13.5236 5.04687 14.2442 5.47476 14.751C5.90265 15.2577 6.46566 15.9333 7.1638 16.7778H7.19758C7.2201 16.8003 7.23136 16.8229 7.23136 16.8454L7.29892 16.7778C7.99706 15.9558 8.56008 15.2802 8.98797 14.751C9.41586 14.2217 9.94509 13.5011 10.5757 12.589C11.2062 11.6769 11.6904 10.7705 12.0282 9.86963C12.366 8.96881 12.5293 8.12429 12.5181 7.33607C12.5181 5.8835 12.0001 4.63923 10.9641 3.60329C9.9282 2.56734 8.68394 2.055 7.23136 2.06626C5.77879 2.07752 4.53453 2.58986 3.49858 3.60329C2.46264 4.61671 1.9503 5.86097 1.96156 7.33607ZM4.07286 7.20095C4.07286 6.32265 4.37688 5.57384 4.98494 4.95452C5.59299 4.33521 6.3418 4.03118 7.23136 4.04244C8.12092 4.0537 8.86973 4.35773 9.47779 4.95452C10.0858 5.55132 10.3955 6.30013 10.4068 7.20095C10.418 8.10177 10.1084 8.85058 9.47779 9.44737C8.84721 10.0442 8.0984 10.3538 7.23136 10.3763C6.36432 10.3989 5.61551 10.0892 4.98494 9.44737C4.35436 8.80554 4.05034 8.05673 4.07286 7.20095ZM4.59646 7.20095C4.59646 7.93287 4.85545 8.55781 5.37342 9.07578C5.89139 9.59376 6.51071 9.84711 7.23136 9.83585C7.95202 9.82459 8.57134 9.57123 9.08931 9.07578C9.60728 8.58033 9.86627 7.95539 9.86627 7.20095C9.86627 6.44651 9.60728 5.82719 9.08931 5.343C8.57134 4.85881 7.95202 4.59982 7.23136 4.56604C6.51071 4.53226 5.89139 4.79125 5.37342 5.343C4.85545 5.89476 4.59646 6.51407 4.59646 7.20095Z" fill="#5D6475"/>
</g>
<defs>
<clipPath id="clip0_631_630">
<rect width="13.4842" height="17.9789" fill="white" transform="matrix(1 0 0 -1 0.87793 18.3037)"/>
</clipPath>
</defs>
</svg>
