<svg width="24" height="25" viewBox="0 0 24 25" fill="none" xmlns="http://www.w3.org/2000/svg">
<path d="M21.1255 18.9293C21.0016 18.3003 20.818 17.685 20.5771 17.092C20.3349 16.4999 20.0367 15.9331 19.6866 15.3995C19.3349 14.8668 18.9334 14.3699 18.4876 13.9156C18.0443 13.4663 17.5528 13.0571 17.0266 12.6979C16.7442 12.507 16.4483 12.3328 16.1467 12.1722C16.7471 11.2706 17.0674 10.2067 17.0661 9.11817V7.93374C17.0394 6.49889 16.4594 5.13196 15.4509 4.12683C14.4424 3.12169 13.0858 2.55859 11.6728 2.55859C10.2599 2.55859 8.9033 3.12169 7.89478 4.12683C6.88625 5.13196 6.3063 6.49889 6.27959 7.93374V9.11817C6.27848 10.2067 6.59875 11.2705 7.19903 12.1722C6.89643 12.3315 6.60239 12.5069 6.31814 12.6979C5.26499 13.4114 4.36088 14.329 3.65767 15.3982C2.95445 16.4674 2.46595 17.667 2.2202 18.9283C2.0978 19.5587 2.03516 20.2009 2.03516 20.8391C2.03516 20.9355 2.05385 21.031 2.09018 21.12C2.1265 21.2091 2.17975 21.29 2.24687 21.3582C2.31399 21.4264 2.39367 21.4805 2.48137 21.5174C2.56907 21.5543 2.66306 21.5732 2.75798 21.5732C2.85291 21.5732 2.9469 21.5543 3.0346 21.5174C3.12229 21.4805 3.20198 21.4264 3.2691 21.3582C3.33622 21.29 3.38946 21.2091 3.42579 21.12C3.46211 21.031 3.48081 20.9355 3.48081 20.8391C3.48203 19.4709 3.81484 18.1241 4.44985 16.9175C5.08486 15.7109 6.00255 14.6816 7.12192 13.9205C7.46792 13.6855 7.83608 13.4868 8.21098 13.3087C9.18089 14.1367 10.4073 14.5906 11.6743 14.5906C12.9413 14.5906 14.1677 14.1367 15.1376 13.3087C15.5135 13.4878 15.8797 13.6865 16.2238 13.9185C16.6719 14.2239 17.0892 14.5714 17.466 14.9532C18.6108 16.1183 19.391 17.6011 19.7087 19.2152C19.8128 19.7486 19.8658 20.2958 19.8658 20.8381C19.8725 21.0281 19.9515 21.208 20.0861 21.34C20.2208 21.472 20.4006 21.5458 20.5877 21.546C20.7748 21.5461 20.9547 21.4725 21.0895 21.3407C21.2244 21.2088 21.3036 21.029 21.3105 20.8391C21.3105 20.1989 21.2488 19.5558 21.1255 18.9293ZM11.6671 13.1247C10.6217 13.1234 9.61951 12.7009 8.8805 11.9499C8.14149 11.199 7.72601 10.1809 7.72524 9.11914V7.93472C7.74805 6.88669 8.17397 5.88939 8.9118 5.15638C9.64963 4.42336 10.6407 4.01291 11.6728 4.01291C12.705 4.01291 13.696 4.42336 14.4339 5.15638C15.1717 5.88939 15.5976 6.88669 15.6204 7.93472V9.11914C15.6186 10.1825 15.2012 11.2017 14.4599 11.9526C13.7186 12.7035 12.714 13.1257 11.6671 13.1247Z" fill="#191E3B"/>
</svg>
