<svg width="15" height="15" viewBox="0 0 15 15" fill="none" xmlns="http://www.w3.org/2000/svg">
<path d="M8 4.20215C9.96875 4.20215 11.5938 5.82715 11.5938 7.7959C11.5938 9.7959 9.96875 11.3896 8 11.3896C6 11.3896 4.40625 9.7959 4.40625 7.7959C4.40625 5.82715 6 4.20215 8 4.20215ZM8 10.1396C9.28125 10.1396 10.3125 9.1084 10.3125 7.7959C10.3125 6.51465 9.28125 5.4834 8 5.4834C6.6875 5.4834 5.65625 6.51465 5.65625 7.7959C5.65625 9.1084 6.71875 10.1396 8 10.1396ZM12.5625 4.07715C12.5625 4.5459 12.1875 4.9209 11.7188 4.9209C11.25 4.9209 10.875 4.5459 10.875 4.07715C10.875 3.6084 11.25 3.2334 11.7188 3.2334C12.1875 3.2334 12.5625 3.6084 12.5625 4.07715ZM14.9375 4.9209C15 6.07715 15 9.5459 14.9375 10.7021C14.875 11.8271 14.625 12.7959 13.8125 13.6396C13 14.4521 12 14.7021 10.875 14.7646C9.71875 14.8271 6.25 14.8271 5.09375 14.7646C3.96875 14.7021 3 14.4521 2.15625 13.6396C1.34375 12.7959 1.09375 11.8271 1.03125 10.7021C0.96875 9.5459 0.96875 6.07715 1.03125 4.9209C1.09375 3.7959 1.34375 2.7959 2.15625 1.9834C3 1.1709 3.96875 0.920898 5.09375 0.858398C6.25 0.795898 9.71875 0.795898 10.875 0.858398C12 0.920898 13 1.1709 13.8125 1.9834C14.625 2.7959 14.875 3.7959 14.9375 4.9209ZM13.4375 11.9209C13.8125 11.0146 13.7188 8.82715 13.7188 7.7959C13.7188 6.7959 13.8125 4.6084 13.4375 3.6709C13.1875 3.07715 12.7188 2.57715 12.125 2.3584C11.1875 1.9834 9 2.07715 8 2.07715C6.96875 2.07715 4.78125 1.9834 3.875 2.3584C3.25 2.6084 2.78125 3.07715 2.53125 3.6709C2.15625 4.6084 2.25 6.7959 2.25 7.7959C2.25 8.82715 2.15625 11.0146 2.53125 11.9209C2.78125 12.5459 3.25 13.0146 3.875 13.2646C4.78125 13.6396 6.96875 13.5459 8 13.5459C9 13.5459 11.1875 13.6396 12.125 13.2646C12.7188 13.0146 13.2188 12.5459 13.4375 11.9209Z" fill="#8A8F9A"/>
<a href="https://www.figma.com/design/l2WFs4CzaVfr9bS6ZgzSZK/HERISTAYS?node-id=65-833">
<rect fill="black" fill-opacity="0" y="-1.2" width="14" height="18.4"/>
</a>
</svg>
