<svg width="19" height="13" viewBox="0 0 19 13" fill="none" xmlns="http://www.w3.org/2000/svg">
<path d="M17.6562 2.70215C18.0312 4.01465 18.0312 6.82715 18.0312 6.82715C18.0312 6.82715 18.0312 9.6084 17.6562 10.9521C17.4688 11.7021 16.875 12.2646 16.1562 12.4521C14.8125 12.7959 9.5 12.7959 9.5 12.7959C9.5 12.7959 4.15625 12.7959 2.8125 12.4521C2.09375 12.2646 1.5 11.7021 1.3125 10.9521C0.9375 9.6084 0.9375 6.82715 0.9375 6.82715C0.9375 6.82715 0.9375 4.01465 1.3125 2.70215C1.5 1.95215 2.09375 1.3584 2.8125 1.1709C4.15625 0.795898 9.5 0.795898 9.5 0.795898C9.5 0.795898 14.8125 0.795898 16.1562 1.1709C16.875 1.3584 17.4688 1.95215 17.6562 2.70215ZM7.75 9.3584L12.1875 6.82715L7.75 4.2959V9.3584Z" fill="#8A8F9A"/>
<a href="https://www.figma.com/design/l2WFs4CzaVfr9bS6ZgzSZK/HERISTAYS?node-id=65-833">
<rect fill="black" fill-opacity="0" y="-1.2" width="18" height="18.4"/>
</a>
</svg>
